/*
Due to shortage on time, these music pieces are shortened, incomplete melodies.
 */

//##############**"Pirates Of The Caribbean**##############//
int Sparrow_note[] = {
NOTE_D4, NOTE_D4, NOTE_D4, NOTE_D4, NOTE_D4, NOTE_D4, NOTE_D4, NOTE_D4,
NOTE_D4, NOTE_D4, NOTE_D4, NOTE_D4, NOTE_D4, NOTE_D4, NOTE_D4, NOTE_D4, 
NOTE_D4, NOTE_D4, NOTE_D4, NOTE_D4, NOTE_D4, NOTE_D4, NOTE_D4, NOTE_D4,  
NOTE_A3, NOTE_C4, NOTE_D4, NOTE_D4, NOTE_D4, NOTE_E4, NOTE_F4, NOTE_F4, 
NOTE_F4, NOTE_G4, NOTE_E4, NOTE_E4, NOTE_D4, NOTE_C4, NOTE_C4, NOTE_D4,
0, NOTE_A3, NOTE_C4, NOTE_B3, NOTE_D4, NOTE_B3, NOTE_E4, NOTE_F4,
NOTE_F4, NOTE_C4, NOTE_C4, NOTE_C4, NOTE_C4, NOTE_D4, NOTE_C4,
NOTE_D4, 0, 0, NOTE_A3, NOTE_C4, NOTE_D4, NOTE_D4, NOTE_D4, NOTE_F4,
NOTE_G4, NOTE_G4, NOTE_G4, NOTE_A4, NOTE_A4, NOTE_A4, NOTE_A4, NOTE_G4,
NOTE_A4, NOTE_D4, 0, NOTE_D4, NOTE_E3, NOTE_F4, NOTE_F4, NOTE_G4, NOTE_A4, 
NOTE_D4, 0, NOTE_D4, NOTE_F4, NOTE_E4, NOTE_E4, NOTE_F4, NOTE_D4
};

int Sparrow_duration[] = {
4,8,4,8,4,8,8,8,8,4,8,4,8,4,8,8,8,8,4,8,4,8,
4,8,8,8,8,4,4,8,8,4,4,8,8,4,4,8,8,
8,4,8,8,8,4,4,8,8,4,4,8,8,4,4,8,4,
4,8,8,8,8,4,4,8,8,4,4,8,8,4,4,8,8,
8,4,8,8,8,4,4,4,8,4,8,8,8,4,4,8,8
};
//###########Pirates Of The Caribbean#############//


//##############**"Super Mario Bros." **##############//
int Mario_note[] = {
  NOTE_E7, NOTE_E7, 0, NOTE_E7,
  0, NOTE_C7, NOTE_E7, 0,
  NOTE_G7, 0, 0,  0,
  NOTE_G6, 0, 0, 0,

  NOTE_C7, 0, 0, NOTE_G6,
  0, 0, NOTE_E6, 0,
  0, NOTE_A6, 0, NOTE_B6,
  0, NOTE_AS6, NOTE_A6, 0,
};

int Mario_duration[] = {
 12, 12, 12, 12,
  12, 12, 12, 12,
  12, 12, 12, 12,
  12, 12, 12, 12,

  12, 12, 12, 12,
  12, 12, 12, 12,
  12, 12, 12, 12,
  12, 12, 12, 12,
};
//###########End of Super Mario Bros.#############//


//##############**"Take on Me - Wheezer" **##############//
int Wheezer_note[] = {
  NOTE_FS5, NOTE_FS5, NOTE_D5, NOTE_B4, NOTE_B4, NOTE_E5, 
  NOTE_E5, NOTE_E5, NOTE_GS5, NOTE_GS5, NOTE_A5, NOTE_B5, 
  NOTE_A5, NOTE_A5, NOTE_A5, NOTE_E5, NOTE_D5, NOTE_FS5, 
  NOTE_FS5, NOTE_FS5, NOTE_E5, NOTE_E5, NOTE_FS5, NOTE_E5
};

int Wheezer_duration[] = {
 8, 8, 8, 4, 4, 4, 
  4, 5, 8, 8, 8, 8, 
  8, 8, 8, 4, 4, 4, 
  4, 5, 8, 8, 8, 8
};
//###########End of Take on Me - Wheezer#############//
